<svg xmlns="http://www.w3.org/2000/svg">
    <symbol id="app-color-icon" viewBox="0 0 930 930">
        <path fill-rule="evenodd" fill="white" d="
            M 852.087103128433,928.327496051788
            C 852.087103128433,928.327496051788 77.9147815704346,928.327496051788 77.9147815704346,928.327496051788
            C 35.8750212192535,928.327496051788 1.67250394821167,894.124978780746 1.67250394821167,852.085218429565
            C 1.67250394821167,852.085218429565 1.67250394821167,77.9147815704346 1.67250394821167,77.9147815704346
            C 1.67250394821167,35.8750212192535 35.8750212192535,1.67250394821167 77.9147815704346,1.67250394821167
            C 77.9147815704346,1.67250394821167 852.087103128433,1.67250394821167 852.087103128433,1.67250394821167
            C 894.124978780746,1.67250394821167 928.327496051788,35.8750212192535 928.327496051788,77.9147815704346
            C 928.327496051788,77.9147815704346 928.327496051788,852.085218429565 928.327496051788,852.085218429565
            C 928.327496051788,894.124978780746 894.124978780746,928.327496051788 852.087103128433,928.327496051788
            C 852.087103128433,928.327496051788 852.087103128433,928.327496051788 852.087103128433,928.327496051788
            Z
        " />
        <path fill-rule="evenodd" fill="inherit" d="
            M 852.087103128433,928.327496051788
            C 852.087103128433,928.327496051788 77.9147815704346,928.327496051788 77.9147815704346,928.327496051788
            C 35.8750212192535,928.327496051788 1.67250394821167,894.124978780746 1.67250394821167,852.085218429565
            C 1.67250394821167,852.085218429565 1.67250394821167,77.9147815704346 1.67250394821167,77.9147815704346
            C 1.67250394821167,35.8750212192535 35.8750212192535,1.67250394821167 77.9147815704346,1.67250394821167
            C 77.9147815704346,1.67250394821167 852.087103128433,1.67250394821167 852.087103128433,1.67250394821167
            C 894.124978780746,1.67250394821167 928.327496051788,35.8750212192535 928.327496051788,77.9147815704346
            C 928.327496051788,77.9147815704346 928.327496051788,852.085218429565 928.327496051788,852.085218429565
            C 928.327496051788,894.124978780746 894.124978780746,928.327496051788 852.087103128433,928.327496051788
            Z
            M 860.107494592667,77.9147815704346
            C 860.107494592667,73.4918922185898 856.509992480278,69.8925054073334 852.087103128433,69.8925054073334
            C 852.087103128433,69.8925054073334 77.9147815704346,69.8925054073334 77.9147815704346,69.8925054073334
            C 73.4918922185898,69.8925054073334 69.8925054073334,73.4918922185898 69.8925054073334,77.9147815704346
            C 69.8925054073334,77.9147815704346 69.8925054073334,852.085218429565 69.8925054073334,852.085218429565
            C 69.8925054073334,856.50810778141 73.4918922185898,860.107494592667 77.9147815704346,860.107494592667
            C 77.9147815704346,860.107494592667 852.087103128433,860.107494592667 852.087103128433,860.107494592667
            C 856.509992480278,860.107494592667 860.107494592667,856.50810778141 860.107494592667,852.085218429565
            C 860.107494592667,852.085218429565 860.107494592667,77.9147815704346 860.107494592667,77.9147815704346
            Z
            M 790.431895852089,559.770696759224
            C 790.431895852089,559.770696759224 667.104851603508,559.770696759224 667.104851603508,559.770696759224
            C 667.104851603508,559.770696759224 645.356978774071,683.097352981567 645.356978774071,683.097352981567
            C 645.356978774071,683.097352981567 573.607934117317,683.097352981567 573.607934117317,683.097352981567
            C 573.607934117317,683.097352981567 595.356139540672,559.770696759224 595.356139540672,559.770696759224
            C 595.356139540672,559.770696759224 472.029039859772,559.770696759224 472.029039859772,559.770696759224
            C 472.029039859772,559.770696759224 484.597764015198,488.485509753227 484.597764015198,488.485509753227
            C 484.597764015198,488.485509753227 607.924420237541,488.485509753227 607.924420237541,488.485509753227
            C 607.924420237541,488.485509753227 629.672237634659,365.158853530884 629.672237634659,365.158853530884
            C 629.672237634659,365.158853530884 701.425107121468,365.158853530884 701.425107121468,365.158853530884
            C 701.425107121468,365.158853530884 679.67728972435,488.485509753227 679.67728972435,488.485509753227
            C 679.67728972435,488.485509753227 803.003945946693,488.485509753227 803.003945946693,488.485509753227
            C 803.003945946693,488.485509753227 790.431895852089,559.770696759224 790.431895852089,559.770696759224
            Z
            M 384.219921827316,672.129514217377
            C 364.449763298035,683.924181461334 339.469687342644,689.904718995094 309.969604611397,689.904718995094
            C 282.860206961632,689.904718995094 258.56139421463,684.766087532043 237.748997211456,674.630731344223
            C 216.395303606987,664.229798913002 200.003356933594,648.403261899948 189.026150107384,627.585543394089
            C 178.131759166718,606.925973296165 172.836697697639,571.654000282288 172.836697697639,519.751998782158
            C 172.836697697639,519.751998782158 172.836697697639,246.959853172302 172.836697697639,246.959853172302
            C 172.836697697639,246.959853172302 245.270774960518,246.959853172302 245.270774960518,246.959853172302
            C 245.270774960518,246.959853172302 245.270774960518,526.647668480873 245.270774960518,526.647668480873
            C 245.270774960518,569.023792147636 249.63230073452,587.5024330616 253.291942477226,595.543944239616
            C 258.395429849625,606.760396957397 266.005788445473,615.057672858238 276.553838253021,620.909163951874
            C 287.346677184105,626.898736953735 299.569115638733,629.935541152954 312.886896729469,629.935541152954
            C 326.995308995247,629.935541152954 339.681272506714,626.672018766403 350.594066977501,620.236991643906
            C 361.22848033905,613.967152833939 368.916222453117,604.255355000496 374.097425937653,590.547164082527
            C 379.580402970314,576.039306521416 382.359557747841,547.491329312325 382.359557747841,505.695304870605
            C 382.359557747841,505.695304870605 382.359557747841,246.959853172302 382.359557747841,246.959853172302
            C 382.359557747841,246.959853172302 450.550180077553,246.959853172302 450.550180077553,246.959853172302
            C 450.550180077553,246.959853172302 450.550180077553,525.056594610214 450.550180077553,525.056594610214
            C 450.550180077553,564.79120194912 444.435385465622,596.562402248383 432.375530004501,619.488987922668
            C 420.2138453722,642.605373859406 404.011588096619,660.315999984741 384.219921827316,672.129514217377
            Z
        " />
    </symbol>
</svg>
