<svg xmlns="http://www.w3.org/2000/svg">
    <symbol id="app-color-icon" viewBox="0 0 926 926">
        <path fill-rule="evenodd" fill="white" d="
            M 463,924.126994967461
            C 208.734392404556,924.126994967461 1.87300503253937,717.265607595444 1.87300503253937,463
            C 1.87300503253937,208.734392404556 208.734392404556,1.87300503253937 463,1.87300503253937
            C 717.267539381981,1.87300503253937 924.126994967461,208.734392404556 924.126994967461,463
            C 924.126994967461,717.265607595444 717.267539381981,924.126994967461 463,924.126994967461
            C 463,924.126994967461 463,924.126994967461 463,924.126994967461
            Z
        " />
        <path fill-rule="evenodd" fill="inherit" d="
            M 463,924.126994967461
            C 208.734392404556,924.126994967461 1.87300503253937,717.265607595444 1.87300503253937,463
            C 1.87300503253937,208.734392404556 208.734392404556,1.87300503253937 463,1.87300503253937
            C 717.267539381981,1.87300503253937 924.126994967461,208.734392404556 924.126994967461,463
            C 924.126994967461,717.265607595444 717.267539381981,924.126994967461 463,924.126994967461
            Z
            M 463,69.7690097093582
            C 246.170704483986,69.7690097093582 69.7690097093582,246.170704483986 69.7690097093582,463
            C 69.7690097093582,679.829295516014 246.170704483986,856.230990290642 463,856.230990290642
            C 679.827418923378,856.230990290642 856.230990290642,679.829295516014 856.230990290642,463
            C 856.230990290642,246.170704483986 679.827418923378,69.7690097093582 463,69.7690097093582
            Z
            M 798.431881904602,567.770718812943
            C 798.431881904602,567.770718812943 675.104863166809,567.770718812943 675.104863166809,567.770718812943
            C 675.104863166809,567.770718812943 653.356975913048,691.097351193428 653.356975913048,691.097351193428
            C 653.356975913048,691.097351193428 581.60788500309,691.097351193428 581.60788500309,691.097351193428
            C 581.60788500309,691.097351193428 603.356158614159,567.770718812943 603.356158614159,567.770718812943
            C 603.356158614159,567.770718812943 480.029029488564,567.770718812943 480.029029488564,567.770718812943
            C 480.029029488564,567.770718812943 492.597784638405,496.485532641411 492.597784638405,496.485532641411
            C 492.597784638405,496.485532641411 615.92441701889,496.485532641411 615.92441701889,496.485532641411
            C 615.92441701889,496.485532641411 637.672249078751,373.158900260925 637.672249078751,373.158900260925
            C 637.672249078751,373.158900260925 709.425093173981,373.158900260925 709.425093173981,373.158900260925
            C 709.425093173981,373.158900260925 687.677316308022,496.485532641411 687.677316308022,496.485532641411
            C 687.677316308022,496.485532641411 811.003948688507,496.485532641411 811.003948688507,496.485532641411
            C 811.003948688507,496.485532641411 798.431881904602,567.770718812943 798.431881904602,567.770718812943
            Z
            M 392.219893217087,680.12949514389
            C 372.449769020081,691.924211025238 347.469671726227,697.904746174812 317.969580292702,697.904746174812
            C 290.860212683678,697.904746174812 266.561373710632,692.766138792038 245.749023079872,682.630717158318
            C 224.395330667496,672.229812860489 208.00334918499,656.403237700462 197.026110172272,635.5855884552
            C 186.131772398949,614.925959348679 180.836690306664,579.653965711594 180.836690306664,527.751994490623
            C 180.836690306664,527.751994490623 180.836690306664,254.959836483002 180.836690306664,254.959836483002
            C 180.836690306664,254.959836483002 253.270737528801,254.959836483002 253.270737528801,254.959836483002
            C 253.270737528801,254.959836483002 253.270737528801,534.647644519806 253.270737528801,534.647644519806
            C 253.270737528801,577.023810744286 257.632325172424,595.502452850342 261.291956782341,603.543928265572
            C 266.39546084404,614.760377645493 274.005816698074,623.057676792145 284.553812742233,628.909168601036
            C 295.346704125404,634.898755550385 307.569117546082,637.935523986816 320.886909127235,637.935523986816
            C 334.995298147202,637.935523986816 347.681285142899,634.672019004822 358.594057679176,628.237017273903
            C 369.228432178497,621.967155694962 376.916225075722,612.255347251892 382.097386956215,598.547169208527
            C 387.580404281616,584.039286732674 390.359582781792,555.491345286369 390.359582781792,513.695322155952
            C 390.359582781792,513.695322155952 390.359582781792,254.959836483002 390.359582781792,254.959836483002
            C 390.359582781792,254.959836483002 458.550157308578,254.959836483002 458.550157308578,254.959836483002
            C 458.550157308578,254.959836483002 458.550157308578,533.056569933891 458.550157308578,533.056569933891
            C 458.550157308578,572.791211247444 452.435390591621,604.562366127968 440.375523209572,627.489029526711
            C 428.213878273964,650.605339169502 412.011598229408,668.315958142281 392.219893217087,680.12949514389
            Z
        " />
    </symbol>
</svg>
